<svg width="131" height="42" viewBox="0 0 131 42" fill="none" xmlns="http://www.w3.org/2000/svg">
<path d="M22.2299 4.5318C22.6619 4.0998 22.8799 3.56781 22.8799 2.94881C22.8799 2.32981 22.6619 1.79781 22.2299 1.36681C21.8039 0.941806 21.2569 0.716797 20.6479 0.716797H2.58893C1.97993 0.716797 1.43293 0.941806 1.00693 1.36681C0.575927 1.79881 0.356934 2.33081 0.356934 2.94881C0.356934 3.56781 0.575927 4.0998 1.00693 4.5318C1.43193 4.9568 1.97893 5.18181 2.58893 5.18181H9.38593V28.3708C9.38593 28.9888 9.60495 29.5208 10.0359 29.9528C10.4679 30.3848 11.0009 30.6028 11.6189 30.6028C12.2289 30.6028 12.7759 30.3788 13.2009 29.9528C13.6319 29.5218 13.851 28.9898 13.851 28.3708V5.18181H20.6479C21.2569 5.18181 21.8049 4.9568 22.2299 4.5318Z" fill="#165E65"/>
<path d="M33.0489 9.7867C33.0489 9.1587 32.8179 8.6207 32.3599 8.1877C31.9159 7.7667 31.3349 7.55469 30.6329 7.55469H30.6229C29.0809 7.58569 27.6119 7.90669 26.2559 8.50569C24.9039 9.10269 23.6989 9.93169 22.6769 10.9707C21.6529 12.0107 20.8399 13.2297 20.2609 14.5947C19.6759 15.9677 19.3799 17.4467 19.3799 18.9907V28.3707C19.3799 28.9887 19.5989 29.5207 20.0289 29.9537C20.4619 30.3847 20.9939 30.6027 21.6119 30.6027C22.2229 30.6027 22.7699 30.3787 23.1949 29.9537C23.6259 29.5217 23.8449 28.9897 23.8449 28.3707V18.9907C23.8449 18.0597 24.0219 17.1617 24.3699 16.3237C24.7189 15.4847 25.2079 14.7467 25.8239 14.1297C26.4469 13.5067 27.1869 12.9987 28.0209 12.6207C28.8469 12.2477 29.7329 12.0447 30.6419 12.0187C31.3369 12.0187 31.9149 11.8067 32.3609 11.3857C32.8119 10.9577 33.0489 10.4047 33.0489 9.7867Z" fill="#165E65"/>
<path d="M76.5341 1.36713C76.1091 1.79213 75.8851 2.33912 75.8851 2.94812V10.4851C75.2241 9.94712 74.5031 9.45112 73.7331 9.00712C72.2691 8.16512 70.6291 7.70613 68.8261 7.64113C67.3061 7.64113 65.8381 7.95412 64.4591 8.57312C63.0981 9.18212 61.8821 10.0161 60.8441 11.0521C59.8101 12.0871 58.9751 13.3111 58.3631 14.6921C57.7461 16.0871 57.4331 17.5931 57.4331 19.1671C57.4331 20.7131 57.7381 22.1951 58.3391 23.5701C58.9341 24.9341 59.7541 26.1511 60.7751 27.1871C61.8011 28.2291 63.0221 29.0591 64.4031 29.6551C65.7941 30.2551 67.3101 30.5591 68.9141 30.5591C70.4521 30.5591 71.9351 30.2721 73.3211 29.7051C74.7061 29.1381 75.9351 28.3401 76.9731 27.3331C78.0171 26.3201 78.8491 25.1041 79.4481 23.7191C80.0471 22.3281 80.3501 20.7961 80.3501 19.1671V2.94812C80.3501 2.32912 80.1311 1.79713 79.7001 1.36713C78.8381 0.503125 77.3991 0.502125 76.5341 1.36713ZM75.8851 19.1771C75.8831 20.1291 75.7001 21.0331 75.3411 21.8661V21.8671C74.9801 22.7091 74.4741 23.4581 73.8391 24.0931C73.2071 24.7261 72.4581 25.2311 71.6131 25.5951C69.9471 26.3161 67.8871 26.3161 66.1851 25.5941C65.3291 25.2301 64.5741 24.7251 63.9421 24.0921C63.3091 23.4601 62.8031 22.7111 62.4391 21.8651C62.0801 21.0341 61.8971 20.1261 61.8971 19.1671C61.8971 18.2071 62.0811 17.2891 62.4421 16.4391C62.8041 15.5841 63.3081 14.8291 63.9421 14.1961C64.5741 13.5641 65.3291 13.0591 66.1851 12.6951C67.0361 12.3341 67.9531 12.1511 68.9131 12.1511C69.8441 12.1511 70.7311 12.3271 71.5541 12.6741C72.3791 13.0221 73.1121 13.5111 73.7301 14.1291C74.3501 14.7511 74.8571 15.5021 75.2351 16.3621C75.6111 17.2201 75.8301 18.1761 75.8851 19.1771Z" fill="#165E65"/>
<path d="M101.766 1.36691C101.335 1.79791 101.117 2.3299 101.117 2.9479V10.4839C100.457 9.9469 99.736 9.45191 98.964 9.00691C97.5 8.16491 95.86 7.70591 94.058 7.64091C92.538 7.64091 91.069 7.9539 89.69 8.5729C88.325 9.1849 87.109 10.0199 86.077 11.0529C85.039 12.0909 84.204 13.3149 83.595 14.6919C82.978 16.0849 82.665 17.5909 82.665 19.1669C82.665 20.7139 82.97 22.1959 83.571 23.5699C84.166 24.9329 84.985 26.1499 86.006 27.1869C87.032 28.2289 88.254 29.0589 89.635 29.6549C91.026 30.2549 92.543 30.5589 94.146 30.5589C95.684 30.5589 97.167 30.2719 98.554 29.7049C99.938 29.1389 101.166 28.3409 102.206 27.3319C103.251 26.3179 104.083 25.1019 104.68 23.7199C105.28 22.3299 105.583 20.7989 105.583 19.1669V2.9479C105.583 2.3289 105.364 1.79691 104.933 1.36691C104.076 0.508906 102.625 0.506906 101.766 1.36691ZM101.116 19.1769C101.114 20.1299 100.931 21.0339 100.573 21.8659C100.211 22.7089 99.705 23.4579 99.071 24.0929C98.438 24.7259 97.688 25.2309 96.843 25.5949C95.179 26.3149 93.119 26.3169 91.417 25.5939C90.56 25.2299 89.805 24.7249 89.173 24.0919C88.539 23.4589 88.033 22.7099 87.67 21.8659C87.311 21.0309 87.128 20.1229 87.128 19.1669C87.128 18.2079 87.311 17.2899 87.672 16.4389C88.035 15.5829 88.54 14.8279 89.174 14.1959C89.806 13.5639 90.561 13.0589 91.417 12.6949C92.267 12.3339 93.184 12.1509 94.143 12.1509C95.075 12.1509 95.963 12.3269 96.785 12.6739C97.61 13.0219 98.343 13.5119 98.96 14.1299C99.581 14.7499 100.088 15.5009 100.467 16.3619C100.844 17.2209 101.063 18.1759 101.116 19.1769Z" fill="#165E65"/>
<path d="M44.0112 7.64355C38.5122 7.64355 33.7862 11.5626 32.7732 16.9626L32.7722 16.9686C32.6802 17.4956 32.5762 18.1926 32.5772 18.9776L32.5762 19.0776C32.5762 19.7026 32.6272 20.3266 32.7252 20.9306C33.6332 26.4836 38.3792 30.5136 44.0112 30.5136C48.2162 30.5136 51.5822 28.7806 53.7472 25.5006C54.1762 24.8496 54.3352 24.1506 54.1952 23.5306C54.0682 22.9716 53.6982 22.4916 53.1242 22.1436C52.2202 21.5956 50.9162 21.4826 49.9632 22.8106C48.3482 25.0546 46.5682 26.0126 44.0112 26.0126C40.8222 26.0126 38.0552 23.8526 37.2902 20.7896C37.2882 20.7806 37.2872 20.7686 37.2862 20.7536H52.3452L53.4482 20.7446C54.3362 20.5526 54.9592 19.9556 55.2072 19.0496C55.4072 18.1886 55.2592 17.0346 55.2492 16.9626C54.2352 11.5626 49.5102 7.64355 44.0112 7.64355ZM50.4912 16.2516H37.5302C38.5092 13.7376 40.9902 12.1436 44.0112 12.1436C47.0322 12.1436 49.5132 13.7386 50.4912 16.2516Z" fill="#165E65"/>
<path d="M130.183 11.6142C130.183 11.0042 129.958 10.4572 129.534 10.0322C128.669 9.17024 127.23 9.17024 126.369 10.0322C125.937 10.4642 125.719 10.9962 125.719 11.6142V19.6532C125.719 20.5522 125.55 21.4022 125.219 22.1812C124.886 22.9622 124.42 23.6492 123.834 24.2222C123.243 24.8002 122.544 25.2633 121.757 25.5983C120.201 26.2613 118.254 26.2613 116.7 25.5983C115.915 25.2643 115.216 24.8012 114.624 24.2222C114.035 23.6452 113.561 22.9552 113.213 22.1702C112.87 21.3962 112.696 20.5502 112.696 19.6532V11.6582C112.696 11.0412 112.477 10.5092 112.046 10.0752C111.181 9.21324 109.745 9.21325 108.88 10.0762C108.449 10.5082 108.231 11.0402 108.231 11.6582V19.6532C108.231 21.0382 108.471 22.3732 108.945 23.6232C109.42 24.8712 110.093 25.9933 110.949 26.9603C111.803 27.9253 112.82 28.7262 113.974 29.3432C115.934 30.3892 118.339 30.7632 120.931 30.4222C122.166 30.2602 123.347 29.8832 124.441 29.3002C124.885 29.0622 125.313 28.7952 125.719 28.5002V30.1222C125.719 31.0532 125.542 31.9512 125.194 32.7892C124.845 33.6282 124.356 34.3662 123.739 34.9832C123.116 35.6072 122.378 36.1142 121.544 36.4922C120.72 36.8652 119.832 37.0682 118.923 37.0942C118.227 37.0942 117.649 37.3072 117.204 37.7282C116.753 38.1552 116.516 38.7082 116.516 39.3262C116.516 39.9542 116.746 40.4922 117.205 40.9262C117.648 41.3462 118.229 41.5592 118.941 41.5592C120.483 41.5272 121.953 41.2072 123.308 40.6082C124.662 40.0102 125.866 39.1802 126.886 38.1432C127.91 37.1032 128.724 35.8842 129.303 34.5192C129.888 33.1452 130.184 31.6662 130.184 30.1222V20.6782L130.158 20.4392C130.176 20.1792 130.184 19.9172 130.184 19.6532V11.6142H130.183Z" fill="#165E65"/>
</svg>
