<svg width="383" height="314" xmlns="http://www.w3.org/2000/svg" fill="none">

 <g>
  <title>Layer 1</title>
  <rect id="svg_1" fill="#D8D8D8" height="314" width="383"/>
  <path id="svg_2" stroke-linejoin="round" stroke-linecap="round" stroke-width="4.9375" stroke="black" d="m158.46875,129.75l17.281,0l7.406,-9.875l19.75,0l7.406,9.875l17.281,0l0,44.438l-69.124,0l0,-44.438z"/>
  <path id="svg_3" stroke-linejoin="round" stroke-linecap="round" stroke-width="4.9375" stroke="black" d="m193.81274,161.844c6.817,0 12.344,-5.527 12.344,-12.344c0,-6.817 -5.527,-12.344 -12.344,-12.344c-6.817,0 -12.344,5.527 -12.344,12.344c0,6.817 5.527,12.344 12.344,12.344z"/>
  <path id="svg_4" fill="black" d="m145,206l0,-13.755l4.263,0c0.938,0 1.771,0.112 2.499,0.336c0.728,0.21 1.295,0.567 1.701,1.071c0.42,0.49 0.63,1.148 0.63,1.974c0,0.658 -0.175,1.267 -0.525,1.827c-0.336,0.56 -0.812,0.945 -1.428,1.155l0,0.084c0.784,0.154 1.428,0.504 1.932,1.05c0.518,0.546 0.777,1.288 0.777,2.226c0,0.91 -0.231,1.666 -0.693,2.268c-0.448,0.588 -1.071,1.029 -1.869,1.323c-0.784,0.294 -1.68,0.441 -2.688,0.441l-4.599,0zm2.142,-1.68l2.205,0c1.092,0 1.932,-0.196 2.52,-0.588c0.588,-0.406 0.882,-1.029 0.882,-1.869c0,-0.784 -0.294,-1.351 -0.882,-1.701c-0.574,-0.364 -1.414,-0.546 -2.52,-0.546l-2.205,0l0,4.704zm0,-6.321l1.869,0c1.05,0 1.806,-0.189 2.268,-0.567c0.476,-0.378 0.714,-0.882 0.714,-1.512c0,-0.728 -0.245,-1.239 -0.735,-1.533c-0.49,-0.308 -1.218,-0.462 -2.184,-0.462l-1.932,0l0,4.074zm10.117,8.001l0,-10.269l2.121,0l0,10.269l-2.121,0zm1.071,-12.201c-0.364,0 -0.672,-0.119 -0.924,-0.357c-0.252,-0.252 -0.378,-0.56 -0.378,-0.924c0,-0.364 0.126,-0.665 0.378,-0.903c0.252,-0.238 0.56,-0.357 0.924,-0.357c0.378,0 0.686,0.119 0.924,0.357c0.252,0.238 0.378,0.539 0.378,0.903c0,0.364 -0.126,0.672 -0.378,0.924c-0.238,0.238 -0.546,0.357 -0.924,0.357zm6.403,12.453c-0.518,0 -0.931,-0.105 -1.239,-0.315c-0.308,-0.21 -0.532,-0.511 -0.672,-0.903c-0.14,-0.392 -0.21,-0.868 -0.21,-1.428l0,-12.495l2.121,0l0,12.621c0,0.28 0.049,0.483 0.147,0.609c0.112,0.112 0.231,0.168 0.357,0.168c0.056,0 0.105,0 0.147,0c0.056,-0.014 0.133,-0.028 0.231,-0.042l0.273,1.596c-0.14,0.056 -0.301,0.098 -0.483,0.126c-0.182,0.042 -0.406,0.063 -0.672,0.063zm6.965,0c-1.274,0 -2.296,-0.469 -3.066,-1.407c-0.77,-0.952 -1.155,-2.275 -1.155,-3.969c0,-1.106 0.203,-2.058 0.609,-2.856c0.42,-0.812 0.966,-1.435 1.638,-1.869c0.672,-0.448 1.386,-0.672 2.142,-0.672c0.602,0 1.113,0.105 1.533,0.315c0.42,0.196 0.833,0.476 1.239,0.84l-0.084,-1.701l0,-3.822l2.121,0l0,14.889l-1.743,0l-0.168,-1.155l-0.063,0c-0.378,0.378 -0.826,0.707 -1.344,0.987c-0.518,0.28 -1.071,0.42 -1.659,0.42zm0.504,-1.764c0.434,0 0.84,-0.098 1.218,-0.294c0.392,-0.21 0.77,-0.532 1.134,-0.966l0,-5.04c-0.378,-0.35 -0.756,-0.595 -1.134,-0.735c-0.364,-0.14 -0.742,-0.21 -1.134,-0.21c-0.49,0 -0.931,0.147 -1.323,0.441c-0.392,0.28 -0.707,0.693 -0.945,1.239c-0.238,0.546 -0.357,1.19 -0.357,1.932c0,1.162 0.217,2.058 0.651,2.688c0.448,0.63 1.078,0.945 1.89,0.945zm14.695,1.764c-0.714,0 -1.414,-0.133 -2.1,-0.399c-0.672,-0.28 -1.26,-0.623 -1.764,-1.029l1.008,-1.365c0.448,0.35 0.903,0.637 1.365,0.861c0.476,0.21 0.994,0.315 1.554,0.315c0.616,0 1.071,-0.133 1.365,-0.399c0.294,-0.266 0.441,-0.595 0.441,-0.987c0,-0.308 -0.112,-0.567 -0.336,-0.777c-0.224,-0.224 -0.511,-0.413 -0.861,-0.567c-0.336,-0.154 -0.693,-0.301 -1.071,-0.441c-0.462,-0.182 -0.924,-0.392 -1.386,-0.63c-0.448,-0.238 -0.826,-0.546 -1.134,-0.924c-0.294,-0.378 -0.441,-0.854 -0.441,-1.428c0,-0.868 0.322,-1.582 0.966,-2.142c0.658,-0.574 1.554,-0.861 2.688,-0.861c0.686,0 1.309,0.119 1.869,0.357c0.56,0.238 1.043,0.518 1.449,0.84l-0.987,1.323c-0.364,-0.266 -0.735,-0.483 -1.113,-0.651c-0.364,-0.168 -0.756,-0.252 -1.176,-0.252c-0.574,0 -1.001,0.126 -1.281,0.378c-0.266,0.252 -0.399,0.553 -0.399,0.903c0,0.294 0.105,0.539 0.315,0.735c0.21,0.182 0.483,0.343 0.819,0.483c0.336,0.14 0.693,0.28 1.071,0.42c0.476,0.182 0.945,0.392 1.407,0.63c0.462,0.238 0.847,0.553 1.155,0.945c0.308,0.378 0.462,0.889 0.462,1.533c0,0.574 -0.154,1.099 -0.462,1.575c-0.294,0.476 -0.728,0.854 -1.302,1.134c-0.574,0.28 -1.281,0.42 -2.121,0.42zm8.584,0c-0.588,0 -1.113,-0.119 -1.575,-0.357c-0.448,-0.252 -0.805,-0.595 -1.071,-1.029c-0.252,-0.448 -0.378,-0.973 -0.378,-1.575c0,-1.106 0.49,-1.96 1.47,-2.562c0.98,-0.602 2.541,-1.022 4.683,-1.26c0,-0.392 -0.063,-0.763 -0.189,-1.113c-0.112,-0.35 -0.315,-0.63 -0.609,-0.84c-0.28,-0.21 -0.672,-0.315 -1.176,-0.315c-0.546,0 -1.071,0.105 -1.575,0.315c-0.49,0.21 -0.952,0.455 -1.386,0.735l-0.798,-1.428c0.35,-0.224 0.742,-0.434 1.176,-0.63c0.434,-0.21 0.896,-0.378 1.386,-0.504c0.504,-0.14 1.029,-0.21 1.575,-0.21c0.84,0 1.533,0.175 2.079,0.525c0.56,0.35 0.973,0.847 1.239,1.491c0.266,0.644 0.399,1.421 0.399,2.331l0,6.174l-1.743,0l-0.168,-1.176l-0.063,0c-0.462,0.392 -0.966,0.728 -1.512,1.008c-0.546,0.28 -1.134,0.42 -1.764,0.42zm0.651,-1.68c0.448,0 0.868,-0.105 1.26,-0.315c0.392,-0.21 0.798,-0.511 1.218,-0.903l0,-2.541c-1.022,0.126 -1.834,0.294 -2.436,0.504c-0.588,0.21 -1.015,0.469 -1.281,0.777c-0.252,0.308 -0.378,0.651 -0.378,1.029c0,0.504 0.154,0.875 0.462,1.113c0.308,0.224 0.693,0.336 1.155,0.336zm7.639,1.428l0,-14.889l2.079,0l0,9.639l0.063,0l4.053,-5.019l2.331,0l-3.486,4.158l3.885,6.111l-2.31,0l-2.793,-4.662l-1.743,2.016l0,2.646l-2.079,0zm10.705,0l0,-10.269l1.743,0l0.168,1.428l0.063,0c0.476,-0.462 0.987,-0.854 1.533,-1.176c0.546,-0.336 1.169,-0.504 1.869,-0.504c1.092,0 1.89,0.35 2.394,1.05c0.504,0.7 0.756,1.701 0.756,3.003l0,6.468l-2.121,0l0,-6.195c0,-0.896 -0.14,-1.533 -0.42,-1.911c-0.266,-0.392 -0.707,-0.588 -1.323,-0.588c-0.49,0 -0.924,0.119 -1.302,0.357c-0.364,0.238 -0.777,0.588 -1.239,1.05l0,7.287l-2.121,0zm14.064,0.252c-0.588,0 -1.113,-0.119 -1.575,-0.357c-0.448,-0.252 -0.805,-0.595 -1.071,-1.029c-0.252,-0.448 -0.378,-0.973 -0.378,-1.575c0,-1.106 0.49,-1.96 1.47,-2.562c0.98,-0.602 2.541,-1.022 4.683,-1.26c0,-0.392 -0.063,-0.763 -0.189,-1.113c-0.112,-0.35 -0.315,-0.63 -0.609,-0.84c-0.28,-0.21 -0.672,-0.315 -1.176,-0.315c-0.546,0 -1.071,0.105 -1.575,0.315c-0.49,0.21 -0.952,0.455 -1.386,0.735l-0.798,-1.428c0.35,-0.224 0.742,-0.434 1.176,-0.63c0.434,-0.21 0.896,-0.378 1.386,-0.504c0.504,-0.14 1.029,-0.21 1.575,-0.21c0.84,0 1.533,0.175 2.079,0.525c0.56,0.35 0.973,0.847 1.239,1.491c0.266,0.644 0.399,1.421 0.399,2.331l0,6.174l-1.743,0l-0.168,-1.176l-0.063,0c-0.462,0.392 -0.966,0.728 -1.512,1.008c-0.546,0.28 -1.134,0.42 -1.764,0.42zm0.651,-1.68c0.448,0 0.868,-0.105 1.26,-0.315c0.392,-0.21 0.798,-0.511 1.218,-0.903l0,-2.541c-1.022,0.126 -1.834,0.294 -2.436,0.504c-0.588,0.21 -1.015,0.469 -1.281,0.777c-0.252,0.308 -0.378,0.651 -0.378,1.029c0,0.504 0.154,0.875 0.462,1.113c0.308,0.224 0.693,0.336 1.155,0.336zm10.432,1.68c-0.714,0 -1.414,-0.133 -2.1,-0.399c-0.672,-0.28 -1.26,-0.623 -1.764,-1.029l1.008,-1.365c0.448,0.35 0.903,0.637 1.365,0.861c0.476,0.21 0.994,0.315 1.554,0.315c0.616,0 1.071,-0.133 1.365,-0.399c0.294,-0.266 0.441,-0.595 0.441,-0.987c0,-0.308 -0.112,-0.567 -0.336,-0.777c-0.224,-0.224 -0.511,-0.413 -0.861,-0.567c-0.336,-0.154 -0.693,-0.301 -1.071,-0.441c-0.462,-0.182 -0.924,-0.392 -1.386,-0.63c-0.448,-0.238 -0.826,-0.546 -1.134,-0.924c-0.294,-0.378 -0.441,-0.854 -0.441,-1.428c0,-0.868 0.322,-1.582 0.966,-2.142c0.658,-0.574 1.554,-0.861 2.688,-0.861c0.686,0 1.309,0.119 1.869,0.357c0.56,0.238 1.043,0.518 1.449,0.84l-0.987,1.323c-0.364,-0.266 -0.735,-0.483 -1.113,-0.651c-0.364,-0.168 -0.756,-0.252 -1.176,-0.252c-0.574,0 -1.001,0.126 -1.281,0.378c-0.266,0.252 -0.399,0.553 -0.399,0.903c0,0.294 0.105,0.539 0.315,0.735c0.21,0.182 0.483,0.343 0.819,0.483c0.336,0.14 0.693,0.28 1.071,0.42c0.476,0.182 0.945,0.392 1.407,0.63c0.462,0.238 0.847,0.553 1.155,0.945c0.308,0.378 0.462,0.889 0.462,1.533c0,0.574 -0.154,1.099 -0.462,1.575c-0.294,0.476 -0.728,0.854 -1.302,1.134c-0.574,0.28 -1.281,0.42 -2.121,0.42z"/>
  <line id="svg_5" y2="156.0004" x2="157.99996" y1="122.50032" x1="0.49977" fill="none"/>
  <line id="svg_6" y2="151.50036" x2="383.00023" y1="154.50037" x1="232.00005" fill="none"/>
  <line id="svg_7" y2="162.00035" x2="383.00022" y1="131.50037" x1="233.00004" fill="none"/>
  <line id="svg_8" y2="119.50033" x2="383.00024" y1="162.50038" x1="233.50005" fill="none"/>
 </g>
</svg>