<svg width="32" height="30" viewBox="0 0 32 30" fill="none" xmlns="http://www.w3.org/2000/svg">
<path d="M21.4101 3.70513C21.8329 3.28558 22.0463 2.7689 22.0463 2.16773C22.0463 1.56656 21.8329 1.04988 21.4101 0.63129C20.9931 0.218529 20.4576 0 19.8615 0H2.18475C1.58864 0 1.05322 0.218529 0.636236 0.63129C0.214359 1.05085 0 1.56753 0 2.16773C0 2.7689 0.214359 3.28558 0.636236 3.70513C1.05224 4.1179 1.58766 4.33642 2.18475 4.33642H8.83788V26.8576C8.83788 27.4578 9.05227 27.9745 9.47415 28.394C9.89701 28.8136 10.4187 29.0253 11.0236 29.0253C11.6207 29.0253 12.1561 28.8078 12.5721 28.394C12.994 27.9755 13.2084 27.4588 13.2084 26.8576V4.33642H19.8615C20.4576 4.33642 20.994 4.1179 21.4101 3.70513Z" fill="#165E65"/>
<path d="M32 8.80884C32 8.19893 31.7739 7.67642 31.3255 7.25589C30.8909 6.84702 30.3223 6.64111 29.6351 6.64111H29.6253C28.116 6.67122 26.6781 6.98298 25.3508 7.56473C24.0274 8.14454 22.8479 8.94966 21.8475 9.95874C20.8452 10.9688 20.0494 12.1527 19.4826 13.4784C18.91 14.8118 18.6203 16.2482 18.6203 17.7478V26.8576C18.6203 27.4578 18.8347 27.9745 19.2556 28.3951C19.6794 28.8136 20.2001 29.0254 20.8051 29.0254C21.4031 29.0254 21.9386 28.8078 22.3546 28.3951C22.7764 27.9755 22.9908 27.4588 22.9908 26.8576V17.7478C22.9908 16.8436 23.164 15.9715 23.5047 15.1576C23.8463 14.3428 24.3249 13.626 24.9279 13.0268C25.5377 12.4217 26.262 11.9283 27.0784 11.5612C27.8869 11.199 28.7542 11.0018 29.6439 10.9766C30.3242 10.9766 30.89 10.7707 31.3265 10.3618C31.768 9.94612 32 9.40905 32 8.80884Z" fill="#165E65"/>
</svg>
